<svg xmlns="http://www.w3.org/2000/svg" xmlns:xlink="http://www.w3.org/1999/xlink" xml:space="preserve" version="1.1" style="shape-rendering:geometricPrecision;text-rendering:geometricPrecision;image-rendering:optimizeQuality;" viewBox="0 0 846.66 1058.325" x="0px" y="0px" fill-rule="evenodd" clip-rule="evenodd"><defs><style type="text/css">
   
    .fil0 {fill:black;fill-rule:nonzero}
   
  </style></defs><g><path class="fil0" d="M548.73 122.92l56.49 -96.95c15.88,-27.41 57.61,-3.23 41.73,24.17l-62.93 107.99c30.84,38.44 49.31,87.24 49.31,140.32 0,54.81 -19.68,105.05 -52.36,144.04 96.55,15.85 166.81,111.31 154.38,208.46 -15.35,120.35 -141.48,171.23 -240.94,113.17 -8.8,4.89 -17.84,8.71 -26.89,11.53l-16.64 41.95c-7.92,19.99 -36.66,20.36 -44.74,0l-16.02 -40.44c-11.97,-3.09 -24.13,-7.76 -35.85,-14.22 -99.51,59.71 -227.46,9.53 -242.96,-111.99 -11.28,-88.15 45.79,-176.01 130.32,-202.67 -35.66,-39.75 -57.37,-92.27 -57.37,-149.83 0,-53.08 18.46,-101.88 49.3,-140.32l-62.92 -107.99c-15.88,-27.4 25.85,-51.58 41.72,-24.17l56.5 96.95c81.41,-65 198.45,-65 279.87,0zm-80.25 96.25c24.72,0 44.76,24.33 44.76,54.35 0,30.02 -20.04,54.35 -44.76,54.35 -24.72,0 -44.76,-24.33 -44.76,-54.35 0,-30.02 20.04,-54.35 44.76,-54.35zm-119.38 0c24.72,0 44.77,24.33 44.77,54.35 0,30.02 -20.05,54.35 -44.77,54.35 -24.72,0 -44.76,-24.33 -44.76,-54.35 0,-30.02 20.04,-54.35 44.76,-54.35zm-25.81 411.43c68.59,24.36 135.19,15.8 202.46,-8.18 0.85,-12 0.04,-22.12 0.04,-33.83 -67.28,21.6 -134.84,27.98 -203.34,7.58 -0.59,11.47 -0.43,23 0.84,34.43zm188.59 47.04c-56.28,16.27 -113.32,21.42 -170.81,8.24 1.59,2.58 3.26,5.05 5,7.39 47.28,63.64 133.92,50.29 165.81,-15.63zm-181.83 -129.55c63.49,20.56 125.17,13.41 187.44,-7.61 -3.8,-13.58 -8.67,-26.4 -14.36,-38.26 -50.31,23.35 -107.9,27.11 -160.74,10.76 -4.91,11.1 -9.09,22.87 -12.34,35.11zm-16.43 181.73c-51.05,-60.44 -47.13,-151.7 -21.37,-221.41l0.01 -0.03 0.24 -0.66 0.01 -0.03 0.5 -1.31 0.01 -0.04 0.25 -0.64 0.01 -0.03 0.25 -0.63 0.01 -0.04 0.25 -0.64 0.01 -0.03 0.26 -0.64 0.01 -0.04 0.25 -0.62 0.01 -0.04 0.26 -0.63 0.01 -0.04 0.25 -0.63 0.02 -0.04 0.25 -0.63 0.01 -0.03 0.26 -0.62 0.01 -0.04 0.26 -0.62 0.01 -0.05 0.26 -0.62 0.02 -0.04 0.25 -0.62 0.02 -0.03 0.26 -0.62 0.01 -0.04 0.26 -0.61 0.02 -0.05 0.26 -0.61 0.02 -0.05 0.26 -0.61 0.02 -0.03 0.26 -0.61 0.02 -0.05 0.26 -0.6 0.02 -0.05 0.26 -0.6c-2.99,-1.7 -5.95,-3.48 -8.85,-5.31 -78.36,2.39 -139.98,79.79 -130.21,156.39 9.93,77.82 85.79,114.6 154.53,84.92zm236.3 -241.25c31.78,71.57 39.31,176.89 -15.06,242.04 68.58,28.41 142.9,-8.81 152.72,-85.71 10.12,-79.36 -56.59,-159.15 -137.66,-156.33zm-141.13 -366.31c-97.56,0 -176.19,78.93 -176.19,176.19 0,106.56 80.34,170.87 165.72,175.68 101.68,5.73 186.67,-73.84 186.67,-175.68 0,-97.18 -78.95,-176.19 -176.2,-176.19z"/></g><text x="0" y="861.66" fill="#000000" font-size="15px" font-weight="bold" font-family="'Helvetica Neue', Helvetica, Arial-Unicode, Arial, Sans-serif">tour_Bee</text></svg>